{
  "accessors": [
    {
      "bufferView": 2,
      "componentType": 5126,
      "count": 2494,
      "max": [
        599.7100830078125,
        229.31971740722656,
        175.70901489257812
      ],
      "min": [
        -296.2900390625,
        -528.49755859375,
        -94.291030883789062
      ],
      "type": "VEC3"
    },
    {
      "bufferView": 2,
      "byteOffset": 29928,
      "componentType": 5126,
      "count": 2494,
      "max": [
        1,
        1,
        1
      ],
      "min": [
        -1,
        -1,
        -1
      ],
      "type": "VEC3"
    },
    {
      "bufferView": 1,
      "componentType": 5126,
      "count": 2494,
      "max": [
        0.99500000476837158,
        0.99496179819107056
      ],
      "min": [
        0.004999999888241291,
        0.004999999888241291
      ],
      "type": "VEC2"
    },
    {
      "bufferView": 1,
      "byteOffset": 19952,
      "componentType": 5126,
      "count": 2494,
      "max": [
        0.99500000476837158,
        0.99496179819107056
      ],
      "min": [
        0.004999999888241291,
        0.004999999888241291
      ],
      "type": "VEC2"
    },
    {
      "bufferView": 0,
      "componentType": 5125,
      "count": 4722,
      "max": [
        2493
      ],
      "min": [
        0
      ],
      "type": "SCALAR"
    },
    {
      "bufferView": 2,
      "byteOffset": 59856,
      "componentType": 5126,
      "count": 52,
      "max": [
        486.50006103515625,
        387.9998779296875,
        0
      ],
      "min": [
        -454.5,
        -387.00018310546875,
        -25
      ],
      "type": "VEC3"
    },
    {
      "bufferView": 2,
      "byteOffset": 60480,
      "componentType": 5126,
      "count": 52,
      "max": [
        1,
        1,
        1
      ],
      "min": [
        -1,
        -1,
        0
      ],
      "type": "VEC3"
    },
    {
      "bufferView": 1,
      "byteOffset": 39904,
      "componentType": 5126,
      "count": 52,
      "max": [
        0.99000000953674316,
        0.98892766237258911
      ],
      "min": [
        0.0099998237565159798,
        0.0099999997764825821
      ],
      "type": "VEC2"
    },
    {
      "bufferView": 1,
      "byteOffset": 40320,
      "componentType": 5126,
      "count": 52,
      "max": [
        0.99000000953674316,
        0.98892766237258911
      ],
      "min": [
        0.0099998237565159798,
        0.0099999997764825821
      ],
      "type": "VEC2"
    },
    {
      "bufferView": 0,
      "byteOffset": 18888,
      "componentType": 5125,
      "count": 126,
      "max": [
        51
      ],
      "min": [
        0
      ],
      "type": "SCALAR"
    },
    {
      "bufferView": 2,
      "byteOffset": 61104,
      "componentType": 5126,
      "count": 544,
      "max": [
        407.72357177734375,
        7.501007080078125,
        320
      ],
      "min": [
        -533.2764892578125,
        -767.4990234375,
        -4.57763671875e-05
      ],
      "type": "VEC3"
    },
    {
      "bufferView": 2,
      "byteOffset": 67632,
      "componentType": 5126,
      "count": 544,
      "max": [
        1,
        1,
        1
      ],
      "min": [
        -1,
        -1,
        -1
      ],
      "type": "VEC3"
    },
    {
      "bufferView": 1,
      "byteOffset": 40736,
      "componentType": 5126,
      "count": 544,
      "max": [
        0.98741960525512695,
        0.99016433954238892
      ],
      "min": [
        0.016530057415366173,
        0.01395651139318943
      ],
      "type": "VEC2"
    },
    {
      "bufferView": 1,
      "byteOffset": 45088,
      "componentType": 5126,
      "count": 544,
      "max": [
        2.26271653175354,
        1.0017760992050171
      ],
      "min": [
        0.016530057415366173,
        0.00050000002374872565
      ],
      "type": "VEC2"
    },
    {
      "bufferView": 0,
      "byteOffset": 19392,
      "componentType": 5125,
      "count": 1122,
      "max": [
        543
      ],
      "min": [
        0
      ],
      "type": "SCALAR"
    },
    {
      "bufferView": 2,
      "byteOffset": 74160,
      "componentType": 5126,
      "count": 334,
      "max": [
        512.14117431640625,
        24.683990478515625,
        320
      ],
      "min": [
        -383.85891723632812,
        -686.3160400390625,
        9.1552734375e-05
      ],
      "type": "VEC3"
    },
    {
      "bufferView": 2,
      "byteOffset": 78168,
      "componentType": 5126,
      "count": 334,
      "max": [
        1,
        1,
        0
      ],
      "min": [
        -1,
        -1,
        -1
      ],
      "type": "VEC3"
    },
    {
      "bufferView": 1,
      "byteOffset": 49440,
      "componentType": 5126,
      "count": 334,
      "max": [
        0.99263852834701538,
        0.98874360322952271
      ],
      "min": [
        0.01011381484568119,
        0.013528160750865936
      ],
      "type": "VEC2"
    },
    {
      "bufferView": 1,
      "byteOffset": 52112,
      "componentType": 5126,
      "count": 334,
      "max": [
        0.99263852834701538,
        0.98874360322952271
      ],
      "min": [
        0.01011381484568119,
        0.013528160750865936
      ],
      "type": "VEC2"
    },
    {
      "bufferView": 0,
      "byteOffset": 23880,
      "componentType": 5125,
      "count": 576,
      "max": [
        333
      ],
      "min": [
        0
      ],
      "type": "SCALAR"
    },
    {
      "bufferView": 2,
      "byteOffset": 82176,
      "componentType": 5126,
      "count": 11125,
      "max": [
        -617.907470703125,
        -1.7426414489746094,
        144.89505004882812
      ],
      "min": [
        -1514.005126953125,
        -675.31048583984375,
        -81.486534118652344
      ],
      "type": "VEC3"
    },
    {
      "bufferView": 2,
      "byteOffset": 215676,
      "componentType": 5126,
      "count": 11125,
      "max": [
        1,
        1,
        1
      ],
      "min": [
        -1,
        -1,
        -1
      ],
      "type": "VEC3"
    },
    {
      "bufferView": 1,
      "byteOffset": 54784,
      "componentType": 5126,
      "count": 11125,
      "max": [
        0.99497973918914795,
        0.99088084697723389
      ],
      "min": [
        0.006249595433473587,
        0.004747326485812664
      ],
      "type": "VEC2"
    },
    {
      "bufferView": 1,
      "byteOffset": 143784,
      "componentType": 5126,
      "count": 11125,
      "max": [
        0.99497973918914795,
        0.99088084697723389
      ],
      "min": [
        0.006249595433473587,
        0.004747326485812664
      ],
      "type": "VEC2"
    },
    {
      "bufferView": 0,
      "byteOffset": 26184,
      "componentType": 5125,
      "count": 36303,
      "max": [
        11124
      ],
      "min": [
        0
      ],
      "type": "SCALAR"
    },
    {
      "bufferView": 2,
      "byteOffset": 349176,
      "componentType": 5126,
      "count": 160,
      "max": [
        1153.336181640625,
        143.00381469726562,
        170.708984375
      ],
      "min": [
        257.05654907226562,
        -475.48873901367188,
        -92.825019836425781
      ],
      "type": "VEC3"
    },
    {
      "bufferView": 2,
      "byteOffset": 351096,
      "componentType": 5126,
      "count": 160,
      "max": [
        1,
        1,
        6.4507190700169303e-08
      ],
      "min": [
        -1,
        -1,
        -9.6760778944826598e-08
      ],
      "type": "VEC3"
    },
    {
      "bufferView": 1,
      "byteOffset": 232784,
      "componentType": 5126,
      "count": 160,
      "max": [
        0.97901642322540283,
        0.98999613523483276
      ],
      "min": [
        0.00051223399350419641,
        0.010004092939198017
      ],
      "type": "VEC2"
    },
    {
      "bufferView": 1,
      "byteOffset": 234064,
      "componentType": 5126,
      "count": 160,
      "max": [
        0.97818070650100708,
        0.98999971151351929
      ],
      "min": [
        0.010001638904213905,
        0.0099963434040546417
      ],
      "type": "VEC2"
    },
    {
      "bufferView": 0,
      "byteOffset": 171396,
      "componentType": 5125,
      "count": 240,
      "max": [
        159
      ],
      "min": [
        0
      ],
      "type": "SCALAR"
    },
    {
      "bufferView": 2,
      "byteOffset": 353016,
      "componentType": 5126,
      "count": 2906,
      "max": [
        1154.836181640625,
        144.17654418945312,
        175.70904541015625
      ],
      "min": [
        255.69888305664062,
        -495.22470092773438,
        -94.291030883789062
      ],
      "type": "VEC3"
    },
    {
      "bufferView": 2,
      "byteOffset": 387888,
      "componentType": 5126,
      "count": 2906,
      "max": [
        1,
        1,
        1
      ],
      "min": [
        -1,
        -1,
        -1
      ],
      "type": "VEC3"
    },
    {
      "bufferView": 1,
      "byteOffset": 235344,
      "componentType": 5126,
      "count": 2906,
      "max": [
        0.99416267871856689,
        0.99950003623962402
      ],
      "min": [
        0.0003354755463078618,
        0.00031908298842608929
      ],
      "type": "VEC2"
    },
    {
      "bufferView": 1,
      "byteOffset": 258592,
      "componentType": 5126,
      "count": 2906,
      "max": [
        0.99000000953674316,
        0.98967009782791138
      ],
      "min": [
        0.0099970735609531403,
        0.0099999140948057175
      ],
      "type": "VEC2"
    },
    {
      "bufferView": 0,
      "byteOffset": 172356,
      "componentType": 5125,
      "count": 5940,
      "max": [
        2905
      ],
      "min": [
        0
      ],
      "type": "SCALAR"
    }
  ],
  "asset": {
    "extras": {
      "author": "navi3d (https://sketchfab.com/navi3d)",
      "license": "CC-BY-4.0 (http://creativecommons.org/licenses/by/4.0/)",
      "source": "https://sketchfab.com/3d-models/anuva-a2-40a54b1e6a6e4b89b6140a721f9536a9",
      "title": "Anuva - A2"
    },
    "generator": "Sketchfab-8.86.0",
    "version": "2.0"
  },
  "bufferViews": [
    {
      "buffer": 0,
      "byteLength": 196116,
      "byteOffset": 0,
      "name": "floatBufferViews",
      "target": 34963
    },
    {
      "buffer": 0,
      "byteLength": 281840,
      "byteOffset": 196116,
      "byteStride": 8,
      "name": "floatBufferViews",
      "target": 34962
    },
    {
      "buffer": 0,
      "byteLength": 422760,
      "byteOffset": 477956,
      "byteStride": 12,
      "name": "floatBufferViews",
      "target": 34962
    }
  ],
  "buffers": [
    {
      "byteLength": 900716,
      "uri": "scene.bin"
    }
  ],
  "extensionsUsed": [
    "KHR_materials_unlit"
  ],
  "images": [
    {
      "uri": "Wood_baseColor.jpeg"
    },
    {
      "uri": "Floor_baseColor.jpeg"
    },
    {
      "uri": "Wall_Ext_baseColor.jpeg"
    },
    {
      "uri": "Wall_Int_baseColor.jpeg"
    },
    {
      "uri": "Props_baseColor.jpeg"
    }
  ],
  "materials": [
    {
      "doubleSided": true,
      "emissiveFactor": [
        0,
        0,
        0
      ],
      "extensions": {
        "KHR_materials_unlit": {}
      },
      "name": "Wood",
      "pbrMetallicRoughness": {
        "baseColorFactor": [
          1,
          1,
          1,
          1
        ],
        "baseColorTexture": {
          "index": 0,
          "texCoord": 0
        },
        "metallicFactor": 0,
        "roughnessFactor": 1
      }
    },
    {
      "doubleSided": true,
      "emissiveFactor": [
        0,
        0,
        0
      ],
      "extensions": {
        "KHR_materials_unlit": {}
      },
      "name": "Floor",
      "pbrMetallicRoughness": {
        "baseColorFactor": [
          1,
          1,
          1,
          1
        ],
        "baseColorTexture": {
          "index": 1,
          "texCoord": 0
        },
        "metallicFactor": 0,
        "roughnessFactor": 1
      }
    },
    {
      "doubleSided": true,
      "emissiveFactor": [
        0,
        0,
        0
      ],
      "extensions": {
        "KHR_materials_unlit": {}
      },
      "name": "Wall_Ext",
      "pbrMetallicRoughness": {
        "baseColorFactor": [
          1,
          1,
          1,
          1
        ],
        "baseColorTexture": {
          "index": 2,
          "texCoord": 0
        },
        "metallicFactor": 0,
        "roughnessFactor": 1
      }
    },
    {
      "doubleSided": true,
      "emissiveFactor": [
        0,
        0,
        0
      ],
      "extensions": {
        "KHR_materials_unlit": {}
      },
      "name": "Wall_Int",
      "pbrMetallicRoughness": {
        "baseColorFactor": [
          1,
          1,
          1,
          1
        ],
        "baseColorTexture": {
          "index": 3,
          "texCoord": 0
        },
        "metallicFactor": 0,
        "roughnessFactor": 1
      }
    },
    {
      "doubleSided": true,
      "emissiveFactor": [
        0,
        0,
        0
      ],
      "extensions": {
        "KHR_materials_unlit": {}
      },
      "name": "Props",
      "pbrMetallicRoughness": {
        "baseColorFactor": [
          1,
          1,
          1,
          1
        ],
        "baseColorTexture": {
          "index": 4,
          "texCoord": 0
        },
        "metallicFactor": 0,
        "roughnessFactor": 1
      }
    },
    {
      "alphaMode": "BLEND",
      "doubleSided": true,
      "extensions": {
        "KHR_materials_unlit": {}
      },
      "name": "Glass",
      "pbrMetallicRoughness": {
        "baseColorFactor": [
          0.032225918177692534,
          0.044895049180010527,
          0.04164453281631475,
          0.25
        ],
        "metallicFactor": 0,
        "roughnessFactor": 1
      }
    },
    {
      "doubleSided": true,
      "extensions": {
        "KHR_materials_unlit": {}
      },
      "name": "M_Metal",
      "pbrMetallicRoughness": {
        "baseColorFactor": [
          0,
          0,
          0,
          1
        ],
        "metallicFactor": 0,
        "roughnessFactor": 1
      }
    }
  ],
  "meshes": [
    {
      "name": "Wood_Wood_0",
      "primitives": [
        {
          "attributes": {
            "NORMAL": 1,
            "POSITION": 0,
            "TEXCOORD_0": 2,
            "TEXCOORD_1": 3
          },
          "indices": 4,
          "material": 0,
          "mode": 4
        }
      ]
    },
    {
      "name": "Floor001_Floor_0",
      "primitives": [
        {
          "attributes": {
            "NORMAL": 6,
            "POSITION": 5,
            "TEXCOORD_0": 7,
            "TEXCOORD_1": 8
          },
          "indices": 9,
          "material": 1,
          "mode": 4
        }
      ]
    },
    {
      "name": "Wall_Ext001_Wall_Ext_0",
      "primitives": [
        {
          "attributes": {
            "NORMAL": 11,
            "POSITION": 10,
            "TEXCOORD_0": 12,
            "TEXCOORD_1": 13
          },
          "indices": 14,
          "material": 2,
          "mode": 4
        }
      ]
    },
    {
      "name": "Wall_int003_Wall_Int_0",
      "primitives": [
        {
          "attributes": {
            "NORMAL": 16,
            "POSITION": 15,
            "TEXCOORD_0": 17,
            "TEXCOORD_1": 18
          },
          "indices": 19,
          "material": 3,
          "mode": 4
        }
      ]
    },
    {
      "name": "Props002_Props_0",
      "primitives": [
        {
          "attributes": {
            "NORMAL": 21,
            "POSITION": 20,
            "TEXCOORD_0": 22,
            "TEXCOORD_1": 23
          },
          "indices": 24,
          "material": 4,
          "mode": 4
        }
      ]
    },
    {
      "name": "Windows002_Glass_0",
      "primitives": [
        {
          "attributes": {
            "NORMAL": 26,
            "POSITION": 25,
            "TEXCOORD_0": 27,
            "TEXCOORD_1": 28
          },
          "indices": 29,
          "material": 5,
          "mode": 4
        }
      ]
    },
    {
      "name": "Windows002_M_Metal_0",
      "primitives": [
        {
          "attributes": {
            "NORMAL": 31,
            "POSITION": 30,
            "TEXCOORD_0": 32,
            "TEXCOORD_1": 33
          },
          "indices": 34,
          "material": 6,
          "mode": 4
        }
      ]
    }
  ],
  "nodes": [
    {
      "children": [
        1
      ],
      "name": "RootNode (gltf orientation matrix)",
      "rotation": [
        -0.70710678118654746,
        -0,
        -0,
        0.70710678118654757
      ]
    },
    {
      "children": [
        2
      ],
      "name": "RootNode (model correction matrix)"
    },
    {
      "children": [
        3
      ],
      "matrix": [
        1,
        0,
        0,
        0,
        0,
        0,
        1,
        0,
        0,
        -1,
        0,
        0,
        0,
        0,
        0,
        1
      ],
      "name": "A2.fbx"
    },
    {
      "children": [
        4,
        7,
        10,
        13,
        16,
        19
      ],
      "name": "RootNode"
    },
    {
      "children": [
        5
      ],
      "matrix": [
        1,
        0,
        0,
        0,
        0,
        2.2204460492503131e-16,
        -1,
        0,
        0,
        1,
        2.2204460492503131e-16,
        0,
        -51.976165771484375,
        47.5,
        -155.46011352539062,
        1
      ],
      "name": "Wood"
    },
    {
      "children": [
        6
      ],
      "matrix": [
        1,
        0,
        -0,
        0,
        0,
        1,
        0,
        0,
        0,
        0,
        1,
        0,
        -103.23390197753906,
        -0.4512176513671875,
        46.791011810302734,
        1
      ],
      "name": ""
    },
    {
      "mesh": 0,
      "name": "Wood_Wood_0"
    },
    {
      "children": [
        8
      ],
      "matrix": [
        1,
        0,
        0,
        0,
        0,
        2.2204460492503131e-16,
        -1,
        0,
        0,
        1,
        2.2204460492503131e-16,
        0,
        -7.000030517578125,
        -12.5,
        -0.0113372802734375,
        1
      ],
      "name": "Floor001"
    },
    {
      "children": [
        9
      ],
      "matrix": [
        1,
        0,
        -0,
        0,
        0,
        1,
        0,
        0,
        0,
        0,
        1,
        0,
        -16.000030517578125,
        -0.499847412109375,
        12.5,
        1
      ],
      "name": ""
    },
    {
      "mesh": 1,
      "name": "Floor001_Floor_0"
    },
    {
      "children": [
        11
      ],
      "matrix": [
        1,
        0,
        0,
        0,
        0,
        2.2204460492503131e-16,
        -1,
        0,
        0,
        1,
        2.2204460492503131e-16,
        0,
        -7.000030517578125,
        159.99996948242188,
        -0.0113525390625,
        1
      ],
      "name": "Wall_Ext001"
    },
    {
      "children": [
        12
      ],
      "matrix": [
        1,
        0,
        -0,
        0,
        0,
        1,
        0,
        0,
        0,
        0,
        1,
        0,
        62.776458740234375,
        379.9990234375,
        -159.99996948242188,
        1
      ],
      "name": ""
    },
    {
      "mesh": 2,
      "name": "Wall_Ext001_Wall_Ext_0"
    },
    {
      "children": [
        14
      ],
      "matrix": [
        1,
        0,
        0,
        0,
        0,
        2.2204460492503131e-16,
        -1,
        0,
        0,
        1,
        2.2204460492503131e-16,
        0,
        -3.50006103515625,
        160.00006103515625,
        1.9886474609375,
        1
      ],
      "name": "Wall_int003"
    },
    {
      "children": [
        15
      ],
      "matrix": [
        1,
        0,
        -0,
        0,
        0,
        1,
        0,
        0,
        0,
        0,
        1,
        0,
        -64.141128540039062,
        330.8160400390625,
        -160.00004577636719,
        1
      ],
      "name": ""
    },
    {
      "mesh": 3,
      "name": "Wall_int003_Wall_Int_0"
    },
    {
      "children": [
        17
      ],
      "matrix": [
        1,
        0,
        0,
        0,
        0,
        2.2204460492503131e-16,
        -1,
        0,
        0,
        1,
        2.2204460492503131e-16,
        0,
        259.34417724609375,
        103.55018615722656,
        -24.712921142578125,
        1
      ],
      "name": "Props002"
    },
    {
      "children": [
        18
      ],
      "matrix": [
        1,
        0,
        -0,
        0,
        0,
        1,
        0,
        0,
        0,
        0,
        1,
        0,
        803.1610107421875,
        330.60641479492188,
        -31.704254150390625,
        1
      ],
      "name": ""
    },
    {
      "mesh": 4,
      "name": "Props002_Props_0"
    },
    {
      "children": [
        20
      ],
      "matrix": [
        1,
        0,
        0,
        0,
        0,
        2.2204460492503131e-16,
        -1,
        0,
        0,
        1,
        2.2204460492503131e-16,
        0,
        -43.000213623046875,
        135,
        340.04205322265625,
        1
      ],
      "name": "Windows002"
    },
    {
      "children": [
        21,
        22
      ],
      "matrix": [
        1,
        0,
        -0,
        0,
        0,
        1,
        0,
        0,
        0,
        0,
        1,
        0,
        -667.33599853515625,
        448.9998779296875,
        -40.708984375,
        1
      ],
      "name": ""
    },
    {
      "mesh": 5,
      "name": "Windows002_Glass_0"
    },
    {
      "mesh": 6,
      "name": "Windows002_M_Metal_0"
    }
  ],
  "samplers": [
    {
      "magFilter": 9729,
      "minFilter": 9987,
      "wrapS": 10497,
      "wrapT": 10497
    }
  ],
  "scene": 0,
  "scenes": [
    {
      "name": "OSG_Scene",
      "nodes": [
        0
      ]
    }
  ],
  "textures": [
    {
      "sampler": 0,
      "source": 0
    },
    {
      "sampler": 0,
      "source": 1
    },
    {
      "sampler": 0,
      "source": 2
    },
    {
      "sampler": 0,
      "source": 3
    },
    {
      "sampler": 0,
      "source": 4
    }
  ]
}

